<svg id="flower" enable-background="new 0 0 300 300" height="512" viewBox="0 0 300 300" width="512" xmlns="http://www.w3.org/2000/svg"><g><circle cx="131.166" cy="126" fill="#efefd2" r="92"/><g fill="#4c241d"><path d="m75.166 62c-8.824 0-16-7.178-16-16s7.176-16 16-16 16 7.178 16 16-7.176 16-16 16zm0-24c-4.41 0-8 3.588-8 8s3.59 8 8 8 8-3.588 8-8-3.59-8-8-8z"/><circle cx="197.166" cy="64" r="4.529"/><circle cx="233.166" cy="48" r="4.529"/><circle cx="233.166" cy="240" r="4.529"/></g><g><path d="m151.166 38-21.538 52.001 21.538 51.999 21.54-51.999z" fill="#e66353"/><path d="m151.166 146c-1.617 0-3.078-.975-3.695-2.469l-21.539-51.998c-.406-.98-.406-2.082 0-3.062l21.539-52.002c.617-1.494 2.078-2.469 3.695-2.469s3.078.975 3.695 2.469l21.539 52.002c.406.98.406 2.082 0 3.062l-21.539 51.998c-.617 1.494-2.078 2.469-3.695 2.469zm-17.211-55.998 17.211 41.545 17.211-41.545-17.211-41.549z" fill="#4c241d"/></g><g><path d="m151.166 162-21.538 52.001 21.538 51.999 21.54-51.999z" fill="#e66353"/><path d="m151.166 270c-1.617 0-3.078-.975-3.695-2.469l-21.539-51.998c-.406-.98-.406-2.082 0-3.062l21.539-52.002c.617-1.494 2.078-2.469 3.695-2.469s3.078.975 3.695 2.469l21.539 52.002c.406.98.406 2.082 0 3.062l-21.539 51.998c-.617 1.494-2.078 2.469-3.695 2.469zm-17.211-55.998 17.211 41.545 17.211-41.545-17.211-41.549z" fill="#4c241d"/></g><g><path d="m45.496 197.993 56.285.055 39.839-39.757-56.284-.059z" fill="#ffce56"/><path d="m101.783 202.049h-.004l-56.285-.057c-1.617-.002-3.074-.979-3.691-2.473-.621-1.496-.277-3.215.871-4.359l39.84-39.76c.75-.748 1.766-1.168 2.824-1.168h.004l56.281.059c1.617.002 3.074.979 3.691 2.473.621 1.496.277 3.215-.871 4.359l-39.836 39.758c-.75.748-1.766 1.168-2.824 1.168zm-46.625-8.047 44.973.045 31.828-31.766-44.969-.047z" fill="#4c241d"/></g><g><path d="m160.711 145.709 56.285.056 39.839-39.758-56.284-.058z" fill="#ffce56"/><path d="m216.998 149.766h-.004l-56.285-.057c-1.617-.002-3.074-.979-3.691-2.473-.621-1.496-.277-3.215.871-4.359l39.84-39.76c.75-.748 1.766-1.168 2.824-1.168h.004l56.281.059c1.617.002 3.074.979 3.691 2.473.621 1.496.277 3.215-.871 4.359l-39.836 39.758c-.75.748-1.766 1.168-2.824 1.168zm-46.625-8.047 44.973.045 31.828-31.766-44.969-.047z" fill="#4c241d"/></g><g><path d="m256.835 197.993-56.285.055-39.839-39.757 56.284-.059z" fill="#a9ba5a"/><path d="m200.548 202.049c-1.059 0-2.074-.42-2.824-1.168l-39.836-39.758c-1.148-1.145-1.492-2.863-.871-4.359.617-1.494 2.074-2.471 3.691-2.473l56.281-.059h.004c1.059 0 2.074.42 2.824 1.168l39.84 39.76c1.148 1.145 1.492 2.863.871 4.359-.617 1.494-2.074 2.471-3.691 2.473l-56.285.057zm-30.175-39.768 31.828 31.766 44.973-.045-31.832-31.768z" fill="#4c241d"/></g><g><path d="m141.62 145.709-56.285.056-39.839-39.758 56.284-.058z" fill="#a9ba5a"/><path d="m85.334 149.766c-1.059 0-2.074-.42-2.824-1.168l-39.837-39.758c-1.148-1.145-1.492-2.863-.871-4.359.617-1.494 2.074-2.471 3.691-2.473l56.281-.059h.004c1.059 0 2.074.42 2.824 1.168l39.84 39.76c1.148 1.145 1.492 2.863.871 4.359-.617 1.494-2.074 2.471-3.691 2.473l-56.285.057zm-30.176-39.768 31.828 31.766 44.973-.045-31.832-31.768z" fill="#4c241d"/></g></g></svg>